<?xml version="1.0" encoding="utf-8"?>
<!-- Generator: Adobe Illustrator 16.0.0, SVG Export Plug-In . SVG Version: 6.00 Build 0)  -->
<!DOCTYPE svg PUBLIC "-//W3C//DTD SVG 1.1//EN" "http://www.w3.org/Graphics/SVG/1.1/DTD/svg11.dtd">
<svg version="1.1" id="Layer_1" xmlns="http://www.w3.org/2000/svg" xmlns:xlink="http://www.w3.org/1999/xlink" x="0px" y="0px"
	 width="92px" height="92px" viewBox="0 0 92 92" enable-background="new 0 0 92 92" xml:space="preserve">
<g>
	<path fill="#010101" d="M21.25,11.252c0,5.315-3.924,9.62-10.381,9.62c-6.074,0-9.998-4.305-9.998-9.62
		c0-5.443,4.051-9.621,10.252-9.621C17.326,1.631,21.125,5.809,21.25,11.252z M1.377,90.369V28.468h19.242v61.901H1.377z"/>
	<path fill="#010101" d="M32.133,48.215c0-7.721-0.252-14.176-0.504-19.747h16.707l0.889,8.608h0.379
		c2.531-4.053,8.734-10.002,19.115-10.002c12.658,0,22.152,8.482,22.152,26.71v36.585H71.628V56.063
		c0-7.976-2.785-13.417-9.748-13.417c-5.316,0-8.479,3.67-9.871,7.215c-0.508,1.265-0.635,3.038-0.635,4.811v35.697H32.133V48.215z"
		/>
</g>
</svg>
